<svg xmlns="http://www.w3.org/2000/svg" width="11.538" height="15" viewBox="0 0 11.538 15">
  <path id="icons8_graph_report" d="M16.369,5.919l-3.75-3.75A.576.576,0,0,0,12.212,2H6.154A1.154,1.154,0,0,0,5,3.154V15.846A1.154,1.154,0,0,0,6.154,17h9.231a1.154,1.154,0,0,0,1.154-1.154V6.327A.576.576,0,0,0,16.369,5.919Zm-1.731,4.566-2.308,2.308a.577.577,0,0,1-.816,0l-1.9-1.9-1.9,1.9a.577.577,0,0,1-.816-.816L9.207,9.669a.576.576,0,0,1,.816,0l1.9,1.9,1.9-1.9a.577.577,0,0,1,.816.816ZM12.5,6.615a.577.577,0,0,1-.577-.577V3.1L15.44,6.615Z" transform="translate(-5 -2)" fill="#ccc"/>
</svg>
