<svg xmlns="http://www.w3.org/2000/svg" width="13.127" height="15.004" viewBox="0 0 13.127 15.004">
  <path id="Union_10" data-name="Union 10" d="M0,15A5.642,5.642,0,0,1,5.623,9.377H7.5A5.64,5.64,0,0,1,13.125,15Zm2.439-1.877h8.344A3.788,3.788,0,0,0,7.5,11.248H5.719A3.788,3.788,0,0,0,2.438,13.125Zm.373-8.437V3.752a3.751,3.751,0,1,1,7.5,0v.936a3.751,3.751,0,0,1-7.5,0Zm1.877-.936v.936a1.874,1.874,0,1,0,3.748,0V3.752a1.874,1.874,0,1,0-3.748,0Z" transform="translate(0.002 0.002)" fill="#ccc"/>
</svg>
