<svg xmlns="http://www.w3.org/2000/svg" width="15.016" height="15.002" viewBox="0 0 15.016 15.002">
  <path id="Union_14" data-name="Union 14" d="M23607.482,19007a3.491,3.491,0,0,1-3.48-3.484v-8.033a3.494,3.494,0,0,1,3.48-3.484h8.049a3.5,3.5,0,0,1,3.486,3.484v8.051a3.512,3.512,0,0,1-3.5,3.467Zm-2.484-11.518v8.051a2.49,2.49,0,0,0,2.484,2.482h8.049a2.486,2.486,0,0,0,2.484-2.482v-8.051a2.49,2.49,0,0,0-2.484-2.482h-8.049A2.494,2.494,0,0,0,23605,18995.482Zm5.613,8.7a.528.528,0,0,1-.533-.533.521.521,0,0,1,.533-.533h1.779a.52.52,0,0,1,.533.533.527.527,0,0,1-.533.533Zm-.178-4.682a1.073,1.073,0,0,1,.535-.924v-3.914a.533.533,0,0,1,1.066,0v3.914a1.08,1.08,0,0,1,.389.391h2.475a.533.533,0,0,1,0,1.066h-2.475a1.067,1.067,0,0,1-1.99-.533Z" transform="translate(-23604.002 -18991.998)" fill="#ccc"/>
</svg>
