<svg xmlns="http://www.w3.org/2000/svg" width="12.893" height="15" viewBox="0 0 12.893 15">
  <path id="Union_17" data-name="Union 17" d="M23605.637,19007a1.645,1.645,0,0,1-1.637-1.641v-11.719a1.641,1.641,0,0,1,1.637-1.641h7.752a.436.436,0,0,1,.309.123l3.064,3.012a.447.447,0,0,1,.131.314v9.91a1.646,1.646,0,0,1-1.643,1.641Zm-.76-13.359v11.719a.76.76,0,0,0,.76.758h9.613a.756.756,0,0,0,.76-.758v-9.473h-2.045a1.022,1.022,0,0,1-1.02-1.02v-1.99h-7.309A.765.765,0,0,0,23604.877,18993.643Zm8.951,1.227a.138.138,0,0,0,.137.143h1.41l-1.547-1.523Zm-7.285,8.24a.546.546,0,0,1,0-1.092h7.023a.546.546,0,0,1,0,1.092Zm0-2.182a.546.546,0,0,1,0-1.092h6.271a.546.546,0,0,1,0,1.092Zm0-2.182a.545.545,0,0,1,0-1.09h7.688a.545.545,0,0,1,0,1.09Z" transform="translate(-23604 -18992.002)" fill="#ccc"/>
</svg>
