<svg xmlns="http://www.w3.org/2000/svg" width="15" height="15" viewBox="0 0 15 15">
  <path id="Union_8" data-name="Union 8" d="M12.188,15a.886.886,0,0,1-.938-.937V5.625a.886.886,0,0,1,.938-.937h1.875A.886.886,0,0,1,15,5.625v8.437a.886.886,0,0,1-.937.937ZM6.563,15a.885.885,0,0,1-.937-.937V.937A.886.886,0,0,1,6.563,0H8.437a.886.886,0,0,1,.937.937V14.063A.885.885,0,0,1,8.437,15ZM.937,15A.886.886,0,0,1,0,14.063v-3.75a.886.886,0,0,1,.937-.938H2.812a.887.887,0,0,1,.938.938v3.75A.886.886,0,0,1,2.812,15Z" fill="#ccc"/>
</svg>
