<svg xmlns="http://www.w3.org/2000/svg" width="12.916" height="15.002" viewBox="0 0 12.916 15.002">
  <path id="Union_15" data-name="Union 15" d="M23607.777,19003.164v-3.088a4.38,4.38,0,0,1-3.775-4.338v-2.607a.546.546,0,0,1,.547-.547h1.148v-.035a.546.546,0,1,1,1.092,0v1.168a.546.546,0,0,1-1.092,0v-.041h-.6v2.063a3.283,3.283,0,0,0,6.566,0v-2.062h-.635v.041a.548.548,0,0,1-1.1,0v-1.168a.548.548,0,1,1,1.1,0v.035h1.186a.546.546,0,0,1,.547.547v2.607a4.382,4.382,0,0,1-3.889,4.352v3.074a2.738,2.738,0,0,0,5.477,0v-2.154a2.028,2.028,0,1,1,1.1,0v2.156a3.832,3.832,0,1,1-7.664,0Zm6.184-4.1a.93.93,0,1,0,.93-.936A.931.931,0,0,0,23613.961,18999.063Z" transform="translate(-23604.002 -18991.998)" fill="#ccc"/>
</svg>
